<?xml version="1.0" encoding="UTF-8" standalone="no"?>
<!-- Generator: Adobe Illustrator 24.0.2, SVG Export Plug-In . SVG Version: 6.00 Build 0)  -->

<svg
   version="1.1"
   id="Camada_1"
   x="0px"
   y="0px"
   viewBox="0 0 542.6 200.4"
   xml:space="preserve"
   sodipodi:docname="bolinhas.svg"
   width="542.59998"
   height="200.39999"
   inkscape:version="1.1.2 (08b2f3d93c, 2022-04-05)"
   xmlns:inkscape="http://www.inkscape.org/namespaces/inkscape"
   xmlns:sodipodi="http://sodipodi.sourceforge.net/DTD/sodipodi-0.dtd"
   xmlns="http://www.w3.org/2000/svg"
   xmlns:svg="http://www.w3.org/2000/svg"><defs
   id="defs209" /><sodipodi:namedview
   id="namedview207"
   pagecolor="#ffffff"
   bordercolor="#666666"
   borderopacity="1.0"
   inkscape:pageshadow="2"
   inkscape:pageopacity="0.0"
   inkscape:pagecheckerboard="0"
   showgrid="false"
   inkscape:zoom="0.93633661"
   inkscape:cx="317.19362"
   inkscape:cy="106.2652"
   inkscape:window-width="1846"
   inkscape:window-height="1016"
   inkscape:window-x="1994"
   inkscape:window-y="27"
   inkscape:window-maximized="1"
   inkscape:current-layer="Camada_1" />
<style
   type="text/css"
   id="style2">
	.st0{opacity:0.3;}
	.st1{fill:#EC2227;}
</style>
<g
   class="st0"
   id="g204"
   transform="matrix(1.4634555,0,0,1.4634555,-98.92442,-8.34205)">
	<path
   class="st1"
   d="m 3.5,21.4 c 1.6,0 2.9,-1.3 2.9,-2.9 0,-1.6 -1.3,-2.9 -2.9,-2.9 -1.6,0 -2.8,1.4 -2.8,3 0,1.5 1.2,2.8 2.8,2.8 z"
   id="path4" />
	<path
   class="st1"
   d="m 31.5,21.4 c 1.6,0 2.9,-1.3 2.9,-2.9 0,-1.6 -1.3,-2.9 -2.9,-2.9 -1.6,0 -2.9,1.3 -2.9,2.9 0.1,1.6 1.3,2.9 2.9,2.9 z"
   id="path6" />
	<path
   class="st1"
   d="m 59.5,21.4 c 1.6,0 2.9,-1.3 2.9,-2.9 0,-1.6 -1.3,-2.9 -2.9,-2.9 -1.6,0 -2.9,1.3 -2.9,2.9 0.1,1.6 1.3,2.9 2.9,2.9 z"
   id="path8" />
	<path
   class="st1"
   d="m 87.5,21.4 c 1.6,0 2.9,-1.3 2.9,-2.9 0,-1.6 -1.3,-2.9 -2.9,-2.9 -1.6,0 -2.9,1.3 -2.9,2.9 0.1,1.6 1.3,2.9 2.9,2.9 z"
   id="path10" />
	<path
   class="st1"
   d="m 115.5,21.4 c 1.6,0 2.9,-1.3 2.9,-2.9 0,-1.6 -1.3,-2.9 -2.9,-2.9 -1.6,0 -2.9,1.3 -2.9,2.9 0.1,1.6 1.4,2.9 2.9,2.9 z"
   id="path12" />
	<path
   class="st1"
   d="m 143.5,21.4 c 1.6,0 2.9,-1.3 2.9,-2.9 0,-1.6 -1.3,-2.9 -2.9,-2.9 -1.6,0 -2.9,1.3 -2.9,2.9 0.1,1.6 1.4,2.9 2.9,2.9 z"
   id="path14" />
	<path
   class="st1"
   d="m 171.5,21.4 c 1.6,0 2.9,-1.3 2.9,-2.9 0,-1.6 -1.3,-2.9 -2.9,-2.9 -1.6,0 -2.9,1.3 -2.9,2.9 0.1,1.6 1.4,2.9 2.9,2.9 z"
   id="path16" />
	<path
   class="st1"
   d="m 199.5,21.4 c 1.6,0 2.9,-1.3 2.9,-2.9 0,-1.6 -1.3,-2.9 -2.9,-2.9 -1.6,0 -2.9,1.3 -2.9,2.9 0.1,1.6 1.4,2.9 2.9,2.9 z"
   id="path18" />
	<path
   class="st1"
   d="m 227.6,21.4 c 1.6,0 2.9,-1.3 2.9,-2.9 0,-1.6 -1.3,-2.9 -2.9,-2.9 -1.6,0 -2.9,1.3 -2.9,2.9 0,1.6 1.3,2.9 2.9,2.9 z"
   id="path20" />
	<path
   class="st1"
   d="m 255.6,21.4 c 1.6,0 2.9,-1.3 2.9,-2.9 0,-1.6 -1.3,-2.9 -2.9,-2.9 -1.6,0 -2.9,1.3 -2.9,2.9 0,1.6 1.3,2.9 2.9,2.9 z"
   id="path22" />
	<path
   class="st1"
   d="m 283.6,21.4 c 1.6,0 2.9,-1.3 2.9,-2.9 0,-1.6 -1.3,-2.9 -2.9,-2.9 -1.6,0 -2.9,1.3 -2.9,2.9 0,1.6 1.3,2.9 2.9,2.9 z"
   id="path24" />
	<path
   class="st1"
   d="m 311.6,21.4 c 1.6,0 2.9,-1.3 2.9,-2.9 0,-1.6 -1.3,-2.9 -2.9,-2.9 -1.6,0 -2.9,1.3 -2.9,2.9 0,1.6 1.3,2.9 2.9,2.9 z"
   id="path26" />
	<path
   class="st1"
   d="m 339.6,21.4 c 1.6,0 2.9,-1.3 2.9,-2.9 0,-1.6 -1.3,-2.9 -2.9,-2.9 -1.6,0 -2.9,1.3 -2.9,2.9 0,1.6 1.3,2.9 2.9,2.9 z"
   id="path28" />
	<path
   class="st1"
   d="m 367.6,21.4 c 1.6,0 2.9,-1.3 2.9,-2.9 0,-1.6 -1.3,-2.9 -2.9,-2.9 -1.6,0 -2.9,1.3 -2.9,2.9 0,1.6 1.3,2.9 2.9,2.9 z"
   id="path30" />
	<path
   class="st1"
   d="m 395.6,21.4 c 1.6,0 2.9,-1.3 2.9,-2.9 0,-1.6 -1.3,-2.9 -2.9,-2.9 -1.6,0 -2.9,1.3 -2.9,2.9 0,1.6 1.3,2.9 2.9,2.9 z"
   id="path32" />
	<path
   class="st1"
   d="m 423.6,21.4 c 1.6,0 2.9,-1.3 2.9,-2.9 0,-1.6 -1.3,-2.9 -2.9,-2.9 -1.6,0 -2.9,1.3 -2.9,2.9 0,1.6 1.3,2.9 2.9,2.9 z"
   id="path34" />
	<path
   class="st1"
   d="m 451.6,21.4 c 1.6,0 2.9,-1.3 2.9,-2.9 0,-1.6 -1.3,-2.9 -2.9,-2.9 -1.6,0 -2.9,1.3 -2.9,2.9 0,1.6 1.3,2.9 2.9,2.9 z"
   id="path36" />
	<path
   class="st1"
   d="m 479.6,21.4 c 1.6,0 2.9,-1.3 2.9,-2.9 0,-1.6 -1.3,-2.9 -2.9,-2.9 -1.6,0 -2.9,1.3 -2.9,2.9 0,1.6 1.3,2.9 2.9,2.9 z"
   id="path38" />
	<path
   class="st1"
   d="m 507.6,21.4 c 1.6,0 2.9,-1.3 2.9,-2.9 0,-1.6 -1.3,-2.9 -2.9,-2.9 -1.6,0 -2.9,1.3 -2.9,2.9 0,1.6 1.3,2.9 2.9,2.9 z"
   id="path40" />
	<path
   class="st1"
   d="m 535.6,21.4 c 1.6,0 2.9,-1.3 2.9,-2.9 0,-1.6 -1.3,-2.9 -2.9,-2.9 -1.6,0 -2.9,1.3 -2.9,2.9 0,1.6 1.3,2.9 2.9,2.9 z"
   id="path42" />
	<path
   class="st1"
   d="m 3.5,49.2 c 1.6,0 2.9,-1.3 2.9,-2.9 0,-1.6 -1.3,-2.9 -2.9,-2.9 -1.6,0 -2.9,1.3 -2.9,2.9 0.1,1.6 1.3,2.9 2.9,2.9 z"
   id="path44" />
	<path
   class="st1"
   d="m 31.5,49.2 c 1.6,0 2.9,-1.3 2.9,-2.9 0,-1.6 -1.3,-2.9 -2.9,-2.9 -1.6,0 -2.9,1.3 -2.9,2.9 0.1,1.6 1.3,2.9 2.9,2.9 z"
   id="path46" />
	<path
   class="st1"
   d="m 59.5,49.2 c 1.6,0 2.9,-1.3 2.9,-2.9 0,-1.6 -1.3,-2.9 -2.9,-2.9 -1.6,0 -2.9,1.3 -2.9,2.9 0.1,1.6 1.3,2.9 2.9,2.9 z"
   id="path48" />
	<circle
   class="st1"
   cx="87.5"
   cy="46.299999"
   id="ellipse50"
   r="2.9000001" />
	<circle
   class="st1"
   cx="115.5"
   cy="46.299999"
   id="ellipse52"
   r="2.9000001" />
	<path
   class="st1"
   d="m 143.5,49.2 c 1.6,0 2.9,-1.3 2.9,-2.9 0,-1.6 -1.3,-2.9 -2.9,-2.9 -1.6,0 -2.9,1.3 -2.9,2.9 0.1,1.6 1.4,2.9 2.9,2.9 z"
   id="path54" />
	<path
   class="st1"
   d="m 171.5,49.2 c 1.6,0 2.9,-1.3 2.9,-2.9 0,-1.6 -1.3,-2.9 -2.9,-2.9 -1.6,0 -2.9,1.3 -2.9,2.9 0.1,1.6 1.4,2.9 2.9,2.9 z"
   id="path56" />
	<path
   class="st1"
   d="m 199.5,49.2 c 1.6,0 2.9,-1.3 2.9,-2.9 0,-1.6 -1.3,-2.9 -2.9,-2.9 -1.6,0 -2.9,1.3 -2.9,2.9 0.1,1.6 1.4,2.9 2.9,2.9 z"
   id="path58" />
	<circle
   class="st1"
   cx="227.60001"
   cy="46.299999"
   id="ellipse60"
   r="2.9000001" />
	<circle
   class="st1"
   cx="255.60001"
   cy="46.299999"
   id="ellipse62"
   r="2.9000001" />
	<path
   class="st1"
   d="m 283.6,49.2 c 1.6,0 2.9,-1.3 2.9,-2.9 0,-1.6 -1.3,-2.9 -2.9,-2.9 -1.6,0 -2.9,1.3 -2.9,2.9 0,1.6 1.3,2.9 2.9,2.9 z"
   id="path64" />
	<path
   class="st1"
   d="m 311.6,49.2 c 1.6,0 2.9,-1.3 2.9,-2.9 0,-1.6 -1.3,-2.9 -2.9,-2.9 -1.6,0 -2.9,1.3 -2.9,2.9 0,1.6 1.3,2.9 2.9,2.9 z"
   id="path66" />
	<path
   class="st1"
   d="m 339.6,49.2 c 1.6,0 2.9,-1.3 2.9,-2.9 0,-1.6 -1.3,-2.9 -2.9,-2.9 -1.6,0 -2.9,1.3 -2.9,2.9 0,1.6 1.3,2.9 2.9,2.9 z"
   id="path68" />
	<circle
   class="st1"
   cx="367.60001"
   cy="46.299999"
   id="ellipse70"
   r="2.9000001" />
	<circle
   class="st1"
   cx="395.60001"
   cy="46.299999"
   id="ellipse72"
   r="2.9000001" />
	<path
   class="st1"
   d="m 423.6,49.2 c 1.6,0 2.9,-1.3 2.9,-2.9 0,-1.6 -1.3,-2.9 -2.9,-2.9 -1.6,0 -2.9,1.3 -2.9,2.9 0,1.6 1.3,2.9 2.9,2.9 z"
   id="path74" />
	<path
   class="st1"
   d="m 451.6,49.2 c 1.6,0 2.9,-1.3 2.9,-2.9 0,-1.6 -1.3,-2.9 -2.9,-2.9 -1.6,0 -2.9,1.3 -2.9,2.9 0,1.6 1.3,2.9 2.9,2.9 z"
   id="path76" />
	<path
   class="st1"
   d="m 479.6,49.2 c 1.6,0 2.9,-1.3 2.9,-2.9 0,-1.6 -1.3,-2.9 -2.9,-2.9 -1.6,0 -2.9,1.3 -2.9,2.9 0,1.6 1.3,2.9 2.9,2.9 z"
   id="path78" />
	<circle
   class="st1"
   cx="507.60001"
   cy="46.299999"
   id="ellipse80"
   r="2.9000001" />
	<circle
   class="st1"
   cx="535.59998"
   cy="46.299999"
   id="ellipse82"
   r="2.9000001" />
	<path
   class="st1"
   d="m 3.5,77 c 1.6,0 2.9,-1.3 2.9,-2.9 0,-1.6 -1.3,-2.9 -2.9,-2.9 -1.6,0 -2.9,1.3 -2.9,2.9 0,1.6 1.3,2.9 2.9,2.9 z"
   id="path84" />
	<path
   class="st1"
   d="m 31.5,77 c 1.6,0 2.9,-1.3 2.9,-2.9 0,-1.6 -1.3,-2.9 -2.9,-2.9 -1.6,0 -2.9,1.3 -2.9,2.9 0,1.6 1.3,2.9 2.9,2.9 z"
   id="path86" />
	<path
   class="st1"
   d="m 59.5,77 c 1.6,0 2.9,-1.3 2.9,-2.9 0,-1.6 -1.3,-2.9 -2.9,-2.9 -1.6,0 -2.9,1.3 -2.9,2.9 0,1.6 1.3,2.9 2.9,2.9 z"
   id="path88" />
	<circle
   class="st1"
   cx="87.5"
   cy="74.099998"
   id="ellipse90"
   r="2.9000001" />
	<circle
   class="st1"
   cx="115.5"
   cy="74.099998"
   id="ellipse92"
   r="2.9000001" />
	<path
   class="st1"
   d="m 143.5,77 c 1.6,0 2.9,-1.3 2.9,-2.9 0,-1.6 -1.3,-2.9 -2.9,-2.9 -1.6,0 -2.9,1.3 -2.9,2.9 0,1.6 1.4,2.9 2.9,2.9 z"
   id="path94" />
	<path
   class="st1"
   d="m 171.5,77 c 1.6,0 2.9,-1.3 2.9,-2.9 0,-1.6 -1.3,-2.9 -2.9,-2.9 -1.6,0 -2.9,1.3 -2.9,2.9 0,1.6 1.4,2.9 2.9,2.9 z"
   id="path96" />
	<path
   class="st1"
   d="m 199.5,77 c 1.6,0 2.9,-1.3 2.9,-2.9 0,-1.6 -1.3,-2.9 -2.9,-2.9 -1.6,0 -2.9,1.3 -2.9,2.9 0,1.6 1.4,2.9 2.9,2.9 z"
   id="path98" />
	<circle
   class="st1"
   cx="227.60001"
   cy="74.099998"
   id="ellipse100"
   r="2.9000001" />
	<circle
   class="st1"
   cx="255.60001"
   cy="74.099998"
   id="ellipse102"
   r="2.9000001" />
	<path
   class="st1"
   d="m 283.6,77 c 1.6,0 2.9,-1.3 2.9,-2.9 0,-1.6 -1.3,-2.9 -2.9,-2.9 -1.6,0 -2.9,1.3 -2.9,2.9 0,1.6 1.3,2.9 2.9,2.9 z"
   id="path104" />
	<path
   class="st1"
   d="m 311.6,77 c 1.6,0 2.9,-1.3 2.9,-2.9 0,-1.6 -1.3,-2.9 -2.9,-2.9 -1.6,0 -2.9,1.3 -2.9,2.9 0,1.6 1.3,2.9 2.9,2.9 z"
   id="path106" />
	<path
   class="st1"
   d="m 339.6,77 c 1.6,0 2.9,-1.3 2.9,-2.9 0,-1.6 -1.3,-2.9 -2.9,-2.9 -1.6,0 -2.9,1.3 -2.9,2.9 0,1.6 1.3,2.9 2.9,2.9 z"
   id="path108" />
	<circle
   class="st1"
   cx="367.60001"
   cy="74.099998"
   id="ellipse110"
   r="2.9000001" />
	<circle
   class="st1"
   cx="395.60001"
   cy="74.099998"
   id="ellipse112"
   r="2.9000001" />
	<path
   class="st1"
   d="m 423.6,77 c 1.6,0 2.9,-1.3 2.9,-2.9 0,-1.6 -1.3,-2.9 -2.9,-2.9 -1.6,0 -2.9,1.3 -2.9,2.9 0,1.6 1.3,2.9 2.9,2.9 z"
   id="path114" />
	<path
   class="st1"
   d="m 451.6,77 c 1.6,0 2.9,-1.3 2.9,-2.9 0,-1.6 -1.3,-2.9 -2.9,-2.9 -1.6,0 -2.9,1.3 -2.9,2.9 0,1.6 1.3,2.9 2.9,2.9 z"
   id="path116" />
	<path
   class="st1"
   d="m 479.6,77 c 1.6,0 2.9,-1.3 2.9,-2.9 0,-1.6 -1.3,-2.9 -2.9,-2.9 -1.6,0 -2.9,1.3 -2.9,2.9 0,1.6 1.3,2.9 2.9,2.9 z"
   id="path118" />
	<circle
   class="st1"
   cx="507.60001"
   cy="74.099998"
   id="ellipse120"
   r="2.9000001" />
	<circle
   class="st1"
   cx="535.59998"
   cy="74.099998"
   id="ellipse122"
   r="2.9000001" />
	<path
   class="st1"
   d="m 3.5,104.8 c 1.6,0 2.9,-1.3 2.9,-2.9 0,-1.6 -1.3,-2.9 -2.9,-2.9 -1.6,0 -2.9,1.3 -2.9,2.9 0.1,1.6 1.3,2.9 2.9,2.9 z"
   id="path124" />
	<path
   class="st1"
   d="m 31.5,104.8 c 1.6,0 2.9,-1.3 2.9,-2.9 0,-1.6 -1.3,-2.9 -2.9,-2.9 -1.6,0 -2.9,1.3 -2.9,2.9 0.1,1.6 1.3,2.9 2.9,2.9 z"
   id="path126" />
	<path
   class="st1"
   d="m 59.5,104.8 c 1.6,0 2.9,-1.3 2.9,-2.9 0,-1.6 -1.3,-2.9 -2.9,-2.9 -1.6,0 -2.9,1.3 -2.9,2.9 0.1,1.6 1.3,2.9 2.9,2.9 z"
   id="path128" />
	<circle
   class="st1"
   cx="87.5"
   cy="101.9"
   id="ellipse130"
   r="2.9000001" />
	<circle
   class="st1"
   cx="115.5"
   cy="101.9"
   id="ellipse132"
   r="2.9000001" />
	<path
   class="st1"
   d="m 143.5,104.8 c 1.6,0 2.9,-1.3 2.9,-2.9 0,-1.6 -1.3,-2.9 -2.9,-2.9 -1.6,0 -2.9,1.3 -2.9,2.9 0.1,1.6 1.4,2.9 2.9,2.9 z"
   id="path134" />
	<path
   class="st1"
   d="m 171.5,104.8 c 1.6,0 2.9,-1.3 2.9,-2.9 0,-1.6 -1.3,-2.9 -2.9,-2.9 -1.6,0 -2.9,1.3 -2.9,2.9 0.1,1.6 1.4,2.9 2.9,2.9 z"
   id="path136" />
	<path
   class="st1"
   d="m 199.5,104.8 c 1.6,0 2.9,-1.3 2.9,-2.9 0,-1.6 -1.3,-2.9 -2.9,-2.9 -1.6,0 -2.9,1.3 -2.9,2.9 0.1,1.6 1.4,2.9 2.9,2.9 z"
   id="path138" />
	<circle
   class="st1"
   cx="227.60001"
   cy="101.9"
   id="ellipse140"
   r="2.9000001" />
	<circle
   class="st1"
   cx="255.60001"
   cy="101.9"
   id="ellipse142"
   r="2.9000001" />
	<path
   class="st1"
   d="m 283.6,104.8 c 1.6,0 2.9,-1.3 2.9,-2.9 0,-1.6 -1.3,-2.9 -2.9,-2.9 -1.6,0 -2.9,1.3 -2.9,2.9 0,1.6 1.3,2.9 2.9,2.9 z"
   id="path144" />
	<path
   class="st1"
   d="m 311.6,104.8 c 1.6,0 2.9,-1.3 2.9,-2.9 0,-1.6 -1.3,-2.9 -2.9,-2.9 -1.6,0 -2.9,1.3 -2.9,2.9 0,1.6 1.3,2.9 2.9,2.9 z"
   id="path146" />
	<path
   class="st1"
   d="m 339.6,104.8 c 1.6,0 2.9,-1.3 2.9,-2.9 0,-1.6 -1.3,-2.9 -2.9,-2.9 -1.6,0 -2.9,1.3 -2.9,2.9 0,1.6 1.3,2.9 2.9,2.9 z"
   id="path148" />
	<circle
   class="st1"
   cx="367.60001"
   cy="101.9"
   id="ellipse150"
   r="2.9000001" />
	<circle
   class="st1"
   cx="395.60001"
   cy="101.9"
   id="ellipse152"
   r="2.9000001" />
	<path
   class="st1"
   d="m 423.6,104.8 c 1.6,0 2.9,-1.3 2.9,-2.9 0,-1.6 -1.3,-2.9 -2.9,-2.9 -1.6,0 -2.9,1.3 -2.9,2.9 0,1.6 1.3,2.9 2.9,2.9 z"
   id="path154" />
	<path
   class="st1"
   d="m 451.6,104.8 c 1.6,0 2.9,-1.3 2.9,-2.9 0,-1.6 -1.3,-2.9 -2.9,-2.9 -1.6,0 -2.9,1.3 -2.9,2.9 0,1.6 1.3,2.9 2.9,2.9 z"
   id="path156" />
	<path
   class="st1"
   d="m 479.6,104.8 c 1.6,0 2.9,-1.3 2.9,-2.9 0,-1.6 -1.3,-2.9 -2.9,-2.9 -1.6,0 -2.9,1.3 -2.9,2.9 0,1.6 1.3,2.9 2.9,2.9 z"
   id="path158" />
	<circle
   class="st1"
   cx="507.60001"
   cy="101.9"
   id="ellipse160"
   r="2.9000001" />
	<circle
   class="st1"
   cx="535.59998"
   cy="101.9"
   id="ellipse162"
   r="2.9000001" />
	<path
   class="st1"
   d="m 3.5,132.6 c 1.6,0 2.9,-1.3 2.9,-2.9 0,-1.6 -1.3,-2.9 -2.9,-2.9 -1.6,0 -2.9,1.3 -2.9,2.9 0,1.6 1.3,2.9 2.9,2.9 z"
   id="path164" />
	<path
   class="st1"
   d="m 31.5,132.6 c 1.6,0 2.9,-1.3 2.9,-2.9 0,-1.6 -1.3,-2.9 -2.9,-2.9 -1.6,0 -2.9,1.3 -2.9,2.9 0,1.6 1.3,2.9 2.9,2.9 z"
   id="path166" />
	<path
   class="st1"
   d="m 59.5,132.6 c 1.6,0 2.9,-1.3 2.9,-2.9 0,-1.6 -1.3,-2.9 -2.9,-2.9 -1.6,0 -2.9,1.3 -2.9,2.9 0,1.6 1.3,2.9 2.9,2.9 z"
   id="path168" />
	<path
   class="st1"
   d="m 87.5,132.6 c 1.6,0 2.9,-1.3 2.9,-2.9 0,-1.6 -1.3,-2.9 -2.9,-2.9 -1.6,0 -2.9,1.3 -2.9,2.9 0,1.6 1.3,2.9 2.9,2.9 z"
   id="path170" />
	<path
   class="st1"
   d="m 115.5,132.6 c 1.6,0 2.9,-1.3 2.9,-2.9 0,-1.6 -1.3,-2.9 -2.9,-2.9 -1.6,0 -2.9,1.3 -2.9,2.9 0,1.6 1.4,2.9 2.9,2.9 z"
   id="path172" />
	<path
   class="st1"
   d="m 143.5,132.6 c 1.6,0 2.9,-1.3 2.9,-2.9 0,-1.6 -1.3,-2.9 -2.9,-2.9 -1.6,0 -2.9,1.3 -2.9,2.9 0,1.6 1.4,2.9 2.9,2.9 z"
   id="path174" />
	<path
   class="st1"
   d="m 171.5,132.6 c 1.6,0 2.9,-1.3 2.9,-2.9 0,-1.6 -1.3,-2.9 -2.9,-2.9 -1.6,0 -2.9,1.3 -2.9,2.9 0,1.6 1.4,2.9 2.9,2.9 z"
   id="path176" />
	<path
   class="st1"
   d="m 199.5,132.6 c 1.6,0 2.9,-1.3 2.9,-2.9 0,-1.6 -1.3,-2.9 -2.9,-2.9 -1.6,0 -2.9,1.3 -2.9,2.9 0,1.6 1.4,2.9 2.9,2.9 z"
   id="path178" />
	<path
   class="st1"
   d="m 227.6,132.6 c 1.6,0 2.9,-1.3 2.9,-2.9 0,-1.6 -1.3,-2.9 -2.9,-2.9 -1.6,0 -2.9,1.3 -2.9,2.9 0,1.6 1.3,2.9 2.9,2.9 z"
   id="path180" />
	<path
   class="st1"
   d="m 255.6,132.6 c 1.6,0 2.9,-1.3 2.9,-2.9 0,-1.6 -1.3,-2.9 -2.9,-2.9 -1.6,0 -2.9,1.3 -2.9,2.9 0,1.6 1.3,2.9 2.9,2.9 z"
   id="path182" />
	<path
   class="st1"
   d="m 283.6,132.6 c 1.6,0 2.9,-1.3 2.9,-2.9 0,-1.6 -1.3,-2.9 -2.9,-2.9 -1.6,0 -2.9,1.3 -2.9,2.9 0,1.6 1.3,2.9 2.9,2.9 z"
   id="path184" />
	<path
   class="st1"
   d="m 311.6,132.6 c 1.6,0 2.9,-1.3 2.9,-2.9 0,-1.6 -1.3,-2.9 -2.9,-2.9 -1.6,0 -2.9,1.3 -2.9,2.9 0,1.6 1.3,2.9 2.9,2.9 z"
   id="path186" />
	<path
   class="st1"
   d="m 339.6,132.6 c 1.6,0 2.9,-1.3 2.9,-2.9 0,-1.6 -1.3,-2.9 -2.9,-2.9 -1.6,0 -2.9,1.3 -2.9,2.9 0,1.6 1.3,2.9 2.9,2.9 z"
   id="path188" />
	<path
   class="st1"
   d="m 367.6,132.6 c 1.6,0 2.9,-1.3 2.9,-2.9 0,-1.6 -1.3,-2.9 -2.9,-2.9 -1.6,0 -2.9,1.3 -2.9,2.9 0,1.6 1.3,2.9 2.9,2.9 z"
   id="path190" />
	<path
   class="st1"
   d="m 395.6,132.6 c 1.6,0 2.9,-1.3 2.9,-2.9 0,-1.6 -1.3,-2.9 -2.9,-2.9 -1.6,0 -2.9,1.3 -2.9,2.9 0,1.6 1.3,2.9 2.9,2.9 z"
   id="path192" />
	<path
   class="st1"
   d="m 423.6,132.6 c 1.6,0 2.9,-1.3 2.9,-2.9 0,-1.6 -1.3,-2.9 -2.9,-2.9 -1.6,0 -2.9,1.3 -2.9,2.9 0,1.6 1.3,2.9 2.9,2.9 z"
   id="path194" />
	<path
   class="st1"
   d="m 451.6,132.6 c 1.6,0 2.9,-1.3 2.9,-2.9 0,-1.6 -1.3,-2.9 -2.9,-2.9 -1.6,0 -2.9,1.3 -2.9,2.9 0,1.6 1.3,2.9 2.9,2.9 z"
   id="path196" />
	<path
   class="st1"
   d="m 479.6,132.6 c 1.6,0 2.9,-1.3 2.9,-2.9 0,-1.6 -1.3,-2.9 -2.9,-2.9 -1.6,0 -2.9,1.3 -2.9,2.9 0,1.6 1.3,2.9 2.9,2.9 z"
   id="path198" />
	<path
   class="st1"
   d="m 507.6,132.6 c 1.6,0 2.9,-1.3 2.9,-2.9 0,-1.6 -1.3,-2.9 -2.9,-2.9 -1.6,0 -2.9,1.3 -2.9,2.9 0,1.6 1.3,2.9 2.9,2.9 z"
   id="path200" />
	<path
   class="st1"
   d="m 535.6,132.6 c 1.6,0 2.9,-1.3 2.9,-2.9 0,-1.6 -1.3,-2.9 -2.9,-2.9 -1.6,0 -2.9,1.3 -2.9,2.9 0,1.6 1.3,2.9 2.9,2.9 z"
   id="path202" />
</g>
</svg>
