<?xml version="1.0" encoding="utf-8"?>
<!-- Generator: Adobe Illustrator 24.0.2, SVG Export Plug-In . SVG Version: 6.00 Build 0)  -->
<svg version="1.1" id="Camada_1" xmlns="http://www.w3.org/2000/svg" xmlns:xlink="http://www.w3.org/1999/xlink" x="0px" y="0px"
	 viewBox="0 0 209.5 525.7" style="enable-background:new 0 0 209.5 525.7;" xml:space="preserve">
<style type="text/css">
	.st0{clip-path:url(#SVGID_2_);}
	.st1{fill:#EC2227;}
</style>
<g>
	<defs>
		<rect id="SVGID_1_" width="209.5" height="528.5"/>
	</defs>
	<clipPath id="SVGID_2_">
		<use xlink:href="#SVGID_1_"  style="overflow:visible;"/>
	</clipPath>
	<g class="st0">
		<path class="st1" d="M267.8,523.5c-6.2,0-12.5-0.2-18.8-0.7c-70.4-4.9-134.7-36.7-181-89.5C21.7,380.5-1.1,312.9,3.8,243
			c4.9-69.9,37-133.7,90.2-179.6c53.3-46,121.3-68.6,191.8-63.7c70.4,4.9,134.7,36.7,181,89.5c95.6,109.1,83.9,275.1-26,370
			C392.3,501,331.5,523.5,267.8,523.5z M267,1.8c-63,0-123.1,22.3-171.1,63.7C43.2,111,11.5,174.1,6.7,243.2
			c-4.9,69.1,17.7,136,63.5,188.3c45.8,52.3,109.4,83.7,179,88.6c69.7,4.8,137-17.6,189.7-63l0.9,1.1l-0.9-1.1
			C547.7,363.1,559.2,199,464.6,91c-45.8-52.3-109.4-83.7-179-88.6C279.4,2.1,273.2,1.8,267,1.8z M267.5,446.9
			c-52.3,0-104.4-21.6-141.4-63.8c-32.8-37.4-49-85.3-45.5-134.8c3.5-49.5,26.2-94.7,63.9-127.3c77.9-67.2,196.4-59,264.1,18.3l0,0
			c67.7,77.3,59.5,194.9-18.4,262.1C354.9,432,311.1,446.9,267.5,446.9z M267.3,78.4c-42.9,0-86,14.7-120.8,44.8
			c-37.1,32.1-59.5,76.6-62.9,125.3c-3.4,48.7,12.5,95.9,44.8,132.8c66.7,76.1,183.3,84.2,260,18c76.7-66.2,84.8-181.9,18.1-258.1
			C370.1,99.7,318.8,78.4,267.3,78.4z"/>
	</g>
</g>
</svg>
