<?xml version="1.0" encoding="utf-8"?>
<!-- Generator: Adobe Illustrator 24.0.2, SVG Export Plug-In . SVG Version: 6.00 Build 0)  -->
<svg version="1.1" id="Camada_1" xmlns="http://www.w3.org/2000/svg" xmlns:xlink="http://www.w3.org/1999/xlink" x="0px" y="0px"
	 viewBox="0 0 542.6 153.4" style="enable-background:new 0 0 542.6 153.4;" xml:space="preserve">
<style type="text/css">
	.st0{opacity:0.3;}
	.st1{fill:#EC2227;}
</style>
<g class="st0">
	<path class="st1" d="M3.5,21.4c1.6,0,2.9-1.3,2.9-2.9c0-1.6-1.3-2.9-2.9-2.9S0.7,17,0.7,18.6C0.7,20.1,1.9,21.4,3.5,21.4z"/>
	<path class="st1" d="M31.5,21.4c1.6,0,2.9-1.3,2.9-2.9c0-1.6-1.3-2.9-2.9-2.9c-1.6,0-2.9,1.3-2.9,2.9
		C28.7,20.1,29.9,21.4,31.5,21.4z"/>
	<path class="st1" d="M59.5,21.4c1.6,0,2.9-1.3,2.9-2.9c0-1.6-1.3-2.9-2.9-2.9s-2.9,1.3-2.9,2.9C56.7,20.1,57.9,21.4,59.5,21.4z"/>
	<path class="st1" d="M87.5,21.4c1.6,0,2.9-1.3,2.9-2.9c0-1.6-1.3-2.9-2.9-2.9s-2.9,1.3-2.9,2.9C84.7,20.1,85.9,21.4,87.5,21.4z"/>
	<path class="st1" d="M115.5,21.4c1.6,0,2.9-1.3,2.9-2.9c0-1.6-1.3-2.9-2.9-2.9s-2.9,1.3-2.9,2.9C112.7,20.1,114,21.4,115.5,21.4z"
		/>
	<path class="st1" d="M143.5,21.4c1.6,0,2.9-1.3,2.9-2.9c0-1.6-1.3-2.9-2.9-2.9s-2.9,1.3-2.9,2.9C140.7,20.1,142,21.4,143.5,21.4z"
		/>
	<path class="st1" d="M171.5,21.4c1.6,0,2.9-1.3,2.9-2.9c0-1.6-1.3-2.9-2.9-2.9c-1.6,0-2.9,1.3-2.9,2.9
		C168.7,20.1,170,21.4,171.5,21.4z"/>
	<path class="st1" d="M199.5,21.4c1.6,0,2.9-1.3,2.9-2.9c0-1.6-1.3-2.9-2.9-2.9s-2.9,1.3-2.9,2.9C196.7,20.1,198,21.4,199.5,21.4z"
		/>
	<path class="st1" d="M227.6,21.4c1.6,0,2.9-1.3,2.9-2.9c0-1.6-1.3-2.9-2.9-2.9s-2.9,1.3-2.9,2.9C224.7,20.1,226,21.4,227.6,21.4z"
		/>
	<path class="st1" d="M255.6,21.4c1.6,0,2.9-1.3,2.9-2.9c0-1.6-1.3-2.9-2.9-2.9c-1.6,0-2.9,1.3-2.9,2.9
		C252.7,20.1,254,21.4,255.6,21.4z"/>
	<path class="st1" d="M283.6,21.4c1.6,0,2.9-1.3,2.9-2.9c0-1.6-1.3-2.9-2.9-2.9c-1.6,0-2.9,1.3-2.9,2.9
		C280.7,20.1,282,21.4,283.6,21.4z"/>
	<path class="st1" d="M311.6,21.4c1.6,0,2.9-1.3,2.9-2.9c0-1.6-1.3-2.9-2.9-2.9c-1.6,0-2.9,1.3-2.9,2.9
		C308.7,20.1,310,21.4,311.6,21.4z"/>
	<path class="st1" d="M339.6,21.4c1.6,0,2.9-1.3,2.9-2.9c0-1.6-1.3-2.9-2.9-2.9c-1.6,0-2.9,1.3-2.9,2.9
		C336.7,20.1,338,21.4,339.6,21.4z"/>
	<path class="st1" d="M367.6,21.4c1.6,0,2.9-1.3,2.9-2.9c0-1.6-1.3-2.9-2.9-2.9c-1.6,0-2.9,1.3-2.9,2.9
		C364.7,20.1,366,21.4,367.6,21.4z"/>
	<path class="st1" d="M395.6,21.4c1.6,0,2.9-1.3,2.9-2.9c0-1.6-1.3-2.9-2.9-2.9c-1.6,0-2.9,1.3-2.9,2.9
		C392.7,20.1,394,21.4,395.6,21.4z"/>
	<path class="st1" d="M423.6,21.4c1.6,0,2.9-1.3,2.9-2.9c0-1.6-1.3-2.9-2.9-2.9c-1.6,0-2.9,1.3-2.9,2.9
		C420.7,20.1,422,21.4,423.6,21.4z"/>
	<path class="st1" d="M451.6,21.4c1.6,0,2.9-1.3,2.9-2.9c0-1.6-1.3-2.9-2.9-2.9c-1.6,0-2.9,1.3-2.9,2.9
		C448.7,20.1,450,21.4,451.6,21.4z"/>
	<path class="st1" d="M479.6,21.4c1.6,0,2.9-1.3,2.9-2.9c0-1.6-1.3-2.9-2.9-2.9c-1.6,0-2.9,1.3-2.9,2.9
		C476.7,20.1,478,21.4,479.6,21.4z"/>
	<path class="st1" d="M507.6,21.4c1.6,0,2.9-1.3,2.9-2.9c0-1.6-1.3-2.9-2.9-2.9c-1.6,0-2.9,1.3-2.9,2.9
		C504.7,20.1,506,21.4,507.6,21.4z"/>
	<path class="st1" d="M535.6,21.4c1.6,0,2.9-1.3,2.9-2.9c0-1.6-1.3-2.9-2.9-2.9c-1.6,0-2.9,1.3-2.9,2.9
		C532.7,20.1,534,21.4,535.6,21.4z"/>
	<path class="st1" d="M3.5,49.2c1.6,0,2.9-1.3,2.9-2.9c0-1.6-1.3-2.9-2.9-2.9s-2.9,1.3-2.9,2.9C0.7,47.9,1.9,49.2,3.5,49.2z"/>
	<path class="st1" d="M31.5,49.2c1.6,0,2.9-1.3,2.9-2.9c0-1.6-1.3-2.9-2.9-2.9c-1.6,0-2.9,1.3-2.9,2.9
		C28.7,47.9,29.9,49.2,31.5,49.2z"/>
	<path class="st1" d="M59.5,49.2c1.6,0,2.9-1.3,2.9-2.9c0-1.6-1.3-2.9-2.9-2.9s-2.9,1.3-2.9,2.9C56.7,47.9,57.9,49.2,59.5,49.2z"/>
	<ellipse class="st1" cx="87.5" cy="46.3" rx="2.9" ry="2.9"/>
	<ellipse class="st1" cx="115.5" cy="46.3" rx="2.9" ry="2.9"/>
	<path class="st1" d="M143.5,49.2c1.6,0,2.9-1.3,2.9-2.9c0-1.6-1.3-2.9-2.9-2.9s-2.9,1.3-2.9,2.9C140.7,47.9,142,49.2,143.5,49.2z"
		/>
	<path class="st1" d="M171.5,49.2c1.6,0,2.9-1.3,2.9-2.9c0-1.6-1.3-2.9-2.9-2.9c-1.6,0-2.9,1.3-2.9,2.9
		C168.7,47.9,170,49.2,171.5,49.2z"/>
	<path class="st1" d="M199.5,49.2c1.6,0,2.9-1.3,2.9-2.9c0-1.6-1.3-2.9-2.9-2.9s-2.9,1.3-2.9,2.9C196.7,47.9,198,49.2,199.5,49.2z"
		/>
	<ellipse class="st1" cx="227.6" cy="46.3" rx="2.9" ry="2.9"/>
	<ellipse class="st1" cx="255.6" cy="46.3" rx="2.9" ry="2.9"/>
	<path class="st1" d="M283.6,49.2c1.6,0,2.9-1.3,2.9-2.9c0-1.6-1.3-2.9-2.9-2.9c-1.6,0-2.9,1.3-2.9,2.9
		C280.7,47.9,282,49.2,283.6,49.2z"/>
	<path class="st1" d="M311.6,49.2c1.6,0,2.9-1.3,2.9-2.9c0-1.6-1.3-2.9-2.9-2.9c-1.6,0-2.9,1.3-2.9,2.9
		C308.7,47.9,310,49.2,311.6,49.2z"/>
	<path class="st1" d="M339.6,49.2c1.6,0,2.9-1.3,2.9-2.9c0-1.6-1.3-2.9-2.9-2.9c-1.6,0-2.9,1.3-2.9,2.9
		C336.7,47.9,338,49.2,339.6,49.2z"/>
	<ellipse class="st1" cx="367.6" cy="46.3" rx="2.9" ry="2.9"/>
	<ellipse class="st1" cx="395.6" cy="46.3" rx="2.9" ry="2.9"/>
	<path class="st1" d="M423.6,49.2c1.6,0,2.9-1.3,2.9-2.9c0-1.6-1.3-2.9-2.9-2.9c-1.6,0-2.9,1.3-2.9,2.9
		C420.7,47.9,422,49.2,423.6,49.2z"/>
	<path class="st1" d="M451.6,49.2c1.6,0,2.9-1.3,2.9-2.9c0-1.6-1.3-2.9-2.9-2.9c-1.6,0-2.9,1.3-2.9,2.9
		C448.7,47.9,450,49.2,451.6,49.2z"/>
	<path class="st1" d="M479.6,49.2c1.6,0,2.9-1.3,2.9-2.9c0-1.6-1.3-2.9-2.9-2.9c-1.6,0-2.9,1.3-2.9,2.9
		C476.7,47.9,478,49.2,479.6,49.2z"/>
	<ellipse class="st1" cx="507.6" cy="46.3" rx="2.9" ry="2.9"/>
	<ellipse class="st1" cx="535.6" cy="46.3" rx="2.9" ry="2.9"/>
	<path class="st1" d="M3.5,77c1.6,0,2.9-1.3,2.9-2.9s-1.3-2.9-2.9-2.9s-2.9,1.3-2.9,2.9S1.9,77,3.5,77z"/>
	<path class="st1" d="M31.5,77c1.6,0,2.9-1.3,2.9-2.9s-1.3-2.9-2.9-2.9c-1.6,0-2.9,1.3-2.9,2.9S29.9,77,31.5,77z"/>
	<path class="st1" d="M59.5,77c1.6,0,2.9-1.3,2.9-2.9s-1.3-2.9-2.9-2.9s-2.9,1.3-2.9,2.9S57.9,77,59.5,77z"/>
	<ellipse class="st1" cx="87.5" cy="74.1" rx="2.9" ry="2.9"/>
	<ellipse class="st1" cx="115.5" cy="74.1" rx="2.9" ry="2.9"/>
	<path class="st1" d="M143.5,77c1.6,0,2.9-1.3,2.9-2.9s-1.3-2.9-2.9-2.9s-2.9,1.3-2.9,2.9S142,77,143.5,77z"/>
	<path class="st1" d="M171.5,77c1.6,0,2.9-1.3,2.9-2.9s-1.3-2.9-2.9-2.9c-1.6,0-2.9,1.3-2.9,2.9S170,77,171.5,77z"/>
	<path class="st1" d="M199.5,77c1.6,0,2.9-1.3,2.9-2.9s-1.3-2.9-2.9-2.9s-2.9,1.3-2.9,2.9S198,77,199.5,77z"/>
	<ellipse class="st1" cx="227.6" cy="74.1" rx="2.9" ry="2.9"/>
	<ellipse class="st1" cx="255.6" cy="74.1" rx="2.9" ry="2.9"/>
	<path class="st1" d="M283.6,77c1.6,0,2.9-1.3,2.9-2.9s-1.3-2.9-2.9-2.9c-1.6,0-2.9,1.3-2.9,2.9S282,77,283.6,77z"/>
	<path class="st1" d="M311.6,77c1.6,0,2.9-1.3,2.9-2.9s-1.3-2.9-2.9-2.9c-1.6,0-2.9,1.3-2.9,2.9S310,77,311.6,77z"/>
	<path class="st1" d="M339.6,77c1.6,0,2.9-1.3,2.9-2.9s-1.3-2.9-2.9-2.9c-1.6,0-2.9,1.3-2.9,2.9S338,77,339.6,77z"/>
	<ellipse class="st1" cx="367.6" cy="74.1" rx="2.9" ry="2.9"/>
	<ellipse class="st1" cx="395.6" cy="74.1" rx="2.9" ry="2.9"/>
	<path class="st1" d="M423.6,77c1.6,0,2.9-1.3,2.9-2.9s-1.3-2.9-2.9-2.9c-1.6,0-2.9,1.3-2.9,2.9S422,77,423.6,77z"/>
	<path class="st1" d="M451.6,77c1.6,0,2.9-1.3,2.9-2.9s-1.3-2.9-2.9-2.9c-1.6,0-2.9,1.3-2.9,2.9S450,77,451.6,77z"/>
	<path class="st1" d="M479.6,77c1.6,0,2.9-1.3,2.9-2.9s-1.3-2.9-2.9-2.9c-1.6,0-2.9,1.3-2.9,2.9S478,77,479.6,77z"/>
	<ellipse class="st1" cx="507.6" cy="74.1" rx="2.9" ry="2.9"/>
	<ellipse class="st1" cx="535.6" cy="74.1" rx="2.9" ry="2.9"/>
	<path class="st1" d="M3.5,104.8c1.6,0,2.9-1.3,2.9-2.9c0-1.6-1.3-2.9-2.9-2.9s-2.9,1.3-2.9,2.9C0.7,103.5,1.9,104.8,3.5,104.8z"/>
	<path class="st1" d="M31.5,104.8c1.6,0,2.9-1.3,2.9-2.9c0-1.6-1.3-2.9-2.9-2.9c-1.6,0-2.9,1.3-2.9,2.9
		C28.7,103.5,29.9,104.8,31.5,104.8z"/>
	<path class="st1" d="M59.5,104.8c1.6,0,2.9-1.3,2.9-2.9c0-1.6-1.3-2.9-2.9-2.9s-2.9,1.3-2.9,2.9C56.7,103.5,57.9,104.8,59.5,104.8z
		"/>
	<ellipse class="st1" cx="87.5" cy="101.9" rx="2.9" ry="2.9"/>
	<ellipse class="st1" cx="115.5" cy="101.9" rx="2.9" ry="2.9"/>
	<path class="st1" d="M143.5,104.8c1.6,0,2.9-1.3,2.9-2.9c0-1.6-1.3-2.9-2.9-2.9s-2.9,1.3-2.9,2.9
		C140.7,103.5,142,104.8,143.5,104.8z"/>
	<path class="st1" d="M171.5,104.8c1.6,0,2.9-1.3,2.9-2.9c0-1.6-1.3-2.9-2.9-2.9c-1.6,0-2.9,1.3-2.9,2.9
		C168.7,103.5,170,104.8,171.5,104.8z"/>
	<path class="st1" d="M199.5,104.8c1.6,0,2.9-1.3,2.9-2.9c0-1.6-1.3-2.9-2.9-2.9s-2.9,1.3-2.9,2.9
		C196.7,103.5,198,104.8,199.5,104.8z"/>
	<ellipse class="st1" cx="227.6" cy="101.9" rx="2.9" ry="2.9"/>
	<ellipse class="st1" cx="255.6" cy="101.9" rx="2.9" ry="2.9"/>
	<path class="st1" d="M283.6,104.8c1.6,0,2.9-1.3,2.9-2.9c0-1.6-1.3-2.9-2.9-2.9c-1.6,0-2.9,1.3-2.9,2.9
		C280.7,103.5,282,104.8,283.6,104.8z"/>
	<path class="st1" d="M311.6,104.8c1.6,0,2.9-1.3,2.9-2.9c0-1.6-1.3-2.9-2.9-2.9c-1.6,0-2.9,1.3-2.9,2.9
		C308.7,103.5,310,104.8,311.6,104.8z"/>
	<path class="st1" d="M339.6,104.8c1.6,0,2.9-1.3,2.9-2.9c0-1.6-1.3-2.9-2.9-2.9c-1.6,0-2.9,1.3-2.9,2.9
		C336.7,103.5,338,104.8,339.6,104.8z"/>
	<ellipse class="st1" cx="367.6" cy="101.9" rx="2.9" ry="2.9"/>
	<ellipse class="st1" cx="395.6" cy="101.9" rx="2.9" ry="2.9"/>
	<path class="st1" d="M423.6,104.8c1.6,0,2.9-1.3,2.9-2.9c0-1.6-1.3-2.9-2.9-2.9c-1.6,0-2.9,1.3-2.9,2.9
		C420.7,103.5,422,104.8,423.6,104.8z"/>
	<path class="st1" d="M451.6,104.8c1.6,0,2.9-1.3,2.9-2.9c0-1.6-1.3-2.9-2.9-2.9c-1.6,0-2.9,1.3-2.9,2.9
		C448.7,103.5,450,104.8,451.6,104.8z"/>
	<path class="st1" d="M479.6,104.8c1.6,0,2.9-1.3,2.9-2.9c0-1.6-1.3-2.9-2.9-2.9c-1.6,0-2.9,1.3-2.9,2.9
		C476.7,103.5,478,104.8,479.6,104.8z"/>
	<ellipse class="st1" cx="507.6" cy="101.9" rx="2.9" ry="2.9"/>
	<ellipse class="st1" cx="535.6" cy="101.9" rx="2.9" ry="2.9"/>
	<path class="st1" d="M3.5,132.6c1.6,0,2.9-1.3,2.9-2.9s-1.3-2.9-2.9-2.9s-2.9,1.3-2.9,2.9S1.9,132.6,3.5,132.6z"/>
	<path class="st1" d="M31.5,132.6c1.6,0,2.9-1.3,2.9-2.9s-1.3-2.9-2.9-2.9c-1.6,0-2.9,1.3-2.9,2.9S29.9,132.6,31.5,132.6z"/>
	<path class="st1" d="M59.5,132.6c1.6,0,2.9-1.3,2.9-2.9s-1.3-2.9-2.9-2.9s-2.9,1.3-2.9,2.9S57.9,132.6,59.5,132.6z"/>
	<path class="st1" d="M87.5,132.6c1.6,0,2.9-1.3,2.9-2.9s-1.3-2.9-2.9-2.9s-2.9,1.3-2.9,2.9S85.9,132.6,87.5,132.6z"/>
	<path class="st1" d="M115.5,132.6c1.6,0,2.9-1.3,2.9-2.9s-1.3-2.9-2.9-2.9s-2.9,1.3-2.9,2.9S114,132.6,115.5,132.6z"/>
	<path class="st1" d="M143.5,132.6c1.6,0,2.9-1.3,2.9-2.9s-1.3-2.9-2.9-2.9s-2.9,1.3-2.9,2.9S142,132.6,143.5,132.6z"/>
	<path class="st1" d="M171.5,132.6c1.6,0,2.9-1.3,2.9-2.9s-1.3-2.9-2.9-2.9c-1.6,0-2.9,1.3-2.9,2.9S170,132.6,171.5,132.6z"/>
	<path class="st1" d="M199.5,132.6c1.6,0,2.9-1.3,2.9-2.9s-1.3-2.9-2.9-2.9s-2.9,1.3-2.9,2.9S198,132.6,199.5,132.6z"/>
	<path class="st1" d="M227.6,132.6c1.6,0,2.9-1.3,2.9-2.9s-1.3-2.9-2.9-2.9s-2.9,1.3-2.9,2.9S226,132.6,227.6,132.6z"/>
	<path class="st1" d="M255.6,132.6c1.6,0,2.9-1.3,2.9-2.9s-1.3-2.9-2.9-2.9c-1.6,0-2.9,1.3-2.9,2.9S254,132.6,255.6,132.6z"/>
	<path class="st1" d="M283.6,132.6c1.6,0,2.9-1.3,2.9-2.9s-1.3-2.9-2.9-2.9c-1.6,0-2.9,1.3-2.9,2.9S282,132.6,283.6,132.6z"/>
	<path class="st1" d="M311.6,132.6c1.6,0,2.9-1.3,2.9-2.9s-1.3-2.9-2.9-2.9c-1.6,0-2.9,1.3-2.9,2.9S310,132.6,311.6,132.6z"/>
	<path class="st1" d="M339.6,132.6c1.6,0,2.9-1.3,2.9-2.9s-1.3-2.9-2.9-2.9c-1.6,0-2.9,1.3-2.9,2.9S338,132.6,339.6,132.6z"/>
	<path class="st1" d="M367.6,132.6c1.6,0,2.9-1.3,2.9-2.9s-1.3-2.9-2.9-2.9c-1.6,0-2.9,1.3-2.9,2.9S366,132.6,367.6,132.6z"/>
	<path class="st1" d="M395.6,132.6c1.6,0,2.9-1.3,2.9-2.9s-1.3-2.9-2.9-2.9c-1.6,0-2.9,1.3-2.9,2.9S394,132.6,395.6,132.6z"/>
	<path class="st1" d="M423.6,132.6c1.6,0,2.9-1.3,2.9-2.9s-1.3-2.9-2.9-2.9c-1.6,0-2.9,1.3-2.9,2.9S422,132.6,423.6,132.6z"/>
	<path class="st1" d="M451.6,132.6c1.6,0,2.9-1.3,2.9-2.9s-1.3-2.9-2.9-2.9c-1.6,0-2.9,1.3-2.9,2.9S450,132.6,451.6,132.6z"/>
	<path class="st1" d="M479.6,132.6c1.6,0,2.9-1.3,2.9-2.9s-1.3-2.9-2.9-2.9c-1.6,0-2.9,1.3-2.9,2.9S478,132.6,479.6,132.6z"/>
	<path class="st1" d="M507.6,132.6c1.6,0,2.9-1.3,2.9-2.9s-1.3-2.9-2.9-2.9c-1.6,0-2.9,1.3-2.9,2.9S506,132.6,507.6,132.6z"/>
	<path class="st1" d="M535.6,132.6c1.6,0,2.9-1.3,2.9-2.9s-1.3-2.9-2.9-2.9c-1.6,0-2.9,1.3-2.9,2.9S534,132.6,535.6,132.6z"/>
</g>
</svg>
