<?xml version="1.0" encoding="UTF-8" standalone="no"?>
<!-- Generator: Adobe Illustrator 24.0.2, SVG Export Plug-In . SVG Version: 6.00 Build 0)  -->

<svg
   version="1.1"
   id="Camada_1"
   x="0px"
   y="0px"
   viewBox="0 0 229.5 525.7"
   xml:space="preserve"
   sodipodi:docname="bolinhas2.svg"
   width="229.5"
   height="525.70001"
   inkscape:version="1.1.2 (08b2f3d93c, 2022-04-05)"
   xmlns:inkscape="http://www.inkscape.org/namespaces/inkscape"
   xmlns:sodipodi="http://sodipodi.sourceforge.net/DTD/sodipodi-0.dtd"
   xmlns:xlink="http://www.w3.org/1999/xlink"
   xmlns="http://www.w3.org/2000/svg"
   xmlns:svg="http://www.w3.org/2000/svg"><defs
   id="defs19" /><sodipodi:namedview
   id="namedview17"
   pagecolor="#ffffff"
   bordercolor="#666666"
   borderopacity="1.0"
   inkscape:pageshadow="2"
   inkscape:pageopacity="0.0"
   inkscape:pagecheckerboard="0"
   showgrid="false"
   width="229.5px"
   inkscape:zoom="1.6054784"
   inkscape:cx="104.64171"
   inkscape:cy="262.53857"
   inkscape:window-width="1846"
   inkscape:window-height="1016"
   inkscape:window-x="1994"
   inkscape:window-y="27"
   inkscape:window-maximized="1"
   inkscape:current-layer="Camada_1" />
<style
   type="text/css"
   id="style2">
	.st0{clip-path:url(#SVGID_2_);}
	.st1{fill:#EC2227;}
</style>
<g
   id="g14"
   transform="matrix(1.1271714,0,0,1.1271714,-5.521306,-33.287112)">
	<defs
   id="defs5">
		<rect
   id="SVGID_1_"
   width="209.5"
   height="528.5"
   x="0"
   y="0" />
	</defs>
	<clipPath
   id="SVGID_2_">
		<use
   xlink:href="#SVGID_1_"
   style="overflow:visible"
   id="use7"
   x="0"
   y="0"
   width="100%"
   height="100%" />
	</clipPath>
	<g
   class="st0"
   clip-path="url(#SVGID_2_)"
   id="g12">
		<path
   class="st1"
   d="m 267.8,523.5 c -6.2,0 -12.5,-0.2 -18.8,-0.7 C 178.6,517.9 114.3,486.1 68,433.3 21.7,380.5 -1.1,312.9 3.8,243 8.7,173.1 40.8,109.3 94,63.4 c 53.3,-46 121.3,-68.6 191.8,-63.7 70.4,4.9 134.7,36.7 181,89.5 95.6,109.1 83.9,275.1 -26,370 -48.5,41.8 -109.3,64.3 -173,64.3 z M 267,1.8 C 204,1.8 143.9,24.1 95.9,65.5 43.2,111 11.5,174.1 6.7,243.2 c -4.9,69.1 17.7,136 63.5,188.3 45.8,52.3 109.4,83.7 179,88.6 69.7,4.8 137,-17.6 189.7,-63 l 0.9,1.1 -0.9,-1.1 C 547.7,363.1 559.2,199 464.6,91 418.8,38.7 355.2,7.3 285.6,2.4 279.4,2.1 273.2,1.8 267,1.8 Z m 0.5,445.1 c -52.3,0 -104.4,-21.6 -141.4,-63.8 -32.8,-37.4 -49,-85.3 -45.5,-134.8 3.5,-49.5 26.2,-94.7 63.9,-127.3 77.9,-67.2 196.4,-59 264.1,18.3 v 0 c 67.7,77.3 59.5,194.9 -18.4,262.1 -35.3,30.6 -79.1,45.5 -122.7,45.5 z M 267.3,78.4 c -42.9,0 -86,14.7 -120.8,44.8 -37.1,32.1 -59.5,76.6 -62.9,125.3 -3.4,48.7 12.5,95.9 44.8,132.8 66.7,76.1 183.3,84.2 260,18 76.7,-66.2 84.8,-181.9 18.1,-258.1 C 370.1,99.7 318.8,78.4 267.3,78.4 Z"
   id="path10" />
	</g>
</g>
</svg>
