<?xml version="1.0" encoding="UTF-8" standalone="no"?>
<!-- Generator: Adobe Illustrator 24.0.2, SVG Export Plug-In . SVG Version: 6.00 Build 0)  -->

<svg
   version="1.1"
   id="Camada_1"
   x="0px"
   y="0px"
   viewBox="0 0 499.99999 500"
   xml:space="preserve"
   sodipodi:docname="medalha-premio.svg"
   width="500"
   height="500"
   inkscape:version="1.1.2 (08b2f3d93c, 2022-04-05)"
   xmlns:inkscape="http://www.inkscape.org/namespaces/inkscape"
   xmlns:sodipodi="http://sodipodi.sourceforge.net/DTD/sodipodi-0.dtd"
   xmlns:xlink="http://www.w3.org/1999/xlink"
   xmlns="http://www.w3.org/2000/svg"
   xmlns:svg="http://www.w3.org/2000/svg"><defs
   id="defs35" /><sodipodi:namedview
   id="namedview33"
   pagecolor="#ffffff"
   bordercolor="#666666"
   borderopacity="1.0"
   inkscape:pageshadow="2"
   inkscape:pageopacity="0.0"
   inkscape:pagecheckerboard="0"
   showgrid="false"
   width="400px"
   inkscape:zoom="0.95259594"
   inkscape:cx="343.27251"
   inkscape:cy="176.88507"
   inkscape:window-width="1846"
   inkscape:window-height="1016"
   inkscape:window-x="1994"
   inkscape:window-y="27"
   inkscape:window-maximized="1"
   inkscape:current-layer="Camada_1" />
<style
   type="text/css"
   id="style2">
	.st0{fill:#F68A30;}
	.st1{fill:#FEC24C;}
	.st2{fill:none;}
	.st3{fill:#EC7523;}
	.st4{fill:#EC2227;}
	.st5{fill:#BF2126;}
	.st6{clip-path:url(#SVGID_2_);fill:#FEC24C;}
</style>
<g
   id="g30"
   transform="matrix(1.0918809,0,0,1.0918809,122.47111,7.9949677)">
	<path
   class="st0"
   d="M 16.2,253.7 C 5.9,271.5 0,292.1 0,314.1 0,380.9 54.1,435 120.9,435 v 0 -120.9 z"
   id="path4" />
	<path
   class="st1"
   d="M 225.6,253.7 C 215.3,235.9 200.4,220.5 181.3,209.5 123.5,176.1 49.6,195.9 16.2,253.7 v 0 l 104.7,60.4 z"
   id="path6" />
	<rect
   y="0"
   class="st2"
   width="255.10001"
   height="443"
   id="rect8"
   x="0" />
	<polygon
   class="st3"
   points="188.6,0 52.3,0 12.6,64 228.3,64 "
   id="polygon10" />
	<polygon
   class="st4"
   points="159,181.3 52.3,0 12.6,64 81.9,181.3 "
   id="polygon12" />
	<polygon
   class="st5"
   points="108.5,95.5 108.5,95.4 81.9,181.3 135,181.3 147,162.3 "
   id="polygon14" />
	<g
   id="g24">
		<defs
   id="defs17">
			<rect
   id="SVGID_1_"
   y="0"
   width="255.10001"
   height="443"
   x="0" />
		</defs>
		<clipPath
   id="SVGID_2_">
			<use
   xlink:href="#SVGID_1_"
   style="overflow:visible"
   id="use19"
   x="0"
   y="0"
   width="100%"
   height="100%" />
		</clipPath>
		<path
   class="st6"
   d="M 159,192 H 81.6 V 181.3 H 159 Z m 2.2,-32 H 72.5 c -6.7,0 -12.2,5.5 -12.2,12.2 V 216 h 117.3 v -39.6 c 0,-9.1 -7.3,-16.4 -16.4,-16.4"
   clip-path="url(#SVGID_2_)"
   id="path22" />
	</g>
	<polygon
   class="st4"
   points="228.3,64 188.6,0 81.9,181.3 159,181.3 "
   id="polygon26" />
	<path
   class="st4"
   d="m 238.9,261.7 c 10.3,17.8 16.2,38.4 16.2,60.5 0,66.8 -54.1,120.9 -120.9,120.9 v 0 -121 z"
   id="path28" />
</g>
</svg>
