<?xml version="1.0" encoding="utf-8"?>
<!-- Generator: Adobe Illustrator 24.0.2, SVG Export Plug-In . SVG Version: 6.00 Build 0)  -->
<svg version="1.1" id="Camada_1" xmlns="http://www.w3.org/2000/svg" xmlns:xlink="http://www.w3.org/1999/xlink" x="0px" y="0px"
	 viewBox="0 0 255.1 443" style="enable-background:new 0 0 255.1 443;" xml:space="preserve">
<style type="text/css">
	.st0{fill:#F68A30;}
	.st1{fill:#FEC24C;}
	.st2{fill:none;}
	.st3{fill:#EC7523;}
	.st4{fill:#EC2227;}
	.st5{fill:#BF2126;}
	.st6{clip-path:url(#SVGID_2_);fill:#FEC24C;}
</style>
<g>
	<path class="st0" d="M16.2,253.7C5.9,271.5,0,292.1,0,314.1C0,380.9,54.1,435,120.9,435v0V314.1L16.2,253.7L16.2,253.7z"/>
	<path class="st1" d="M225.6,253.7c-10.3-17.8-25.2-33.2-44.3-44.2c-57.8-33.4-131.7-13.6-165.1,44.2l0,0l104.7,60.4L225.6,253.7
		L225.6,253.7z"/>
	<rect y="0" class="st2" width="255.1" height="443"/>
	<polygon class="st3" points="52.3,0 12.6,64 228.3,64 188.6,0 	"/>
	<polygon class="st4" points="52.3,0 12.6,64 81.9,181.3 159,181.3 	"/>
	<polygon class="st5" points="108.5,95.4 81.9,181.3 135,181.3 147,162.3 108.5,95.5 	"/>
	<g>
		<defs>
			<rect id="SVGID_1_" y="0" width="255.1" height="443"/>
		</defs>
		<clipPath id="SVGID_2_">
			<use xlink:href="#SVGID_1_"  style="overflow:visible;"/>
		</clipPath>
		<path class="st6" d="M159,192H81.6v-10.7H159V192z M161.2,160H72.5c-6.7,0-12.2,5.5-12.2,12.2V216h117.3v-39.6
			C177.6,167.3,170.3,160,161.2,160"/>
	</g>
	<polygon class="st4" points="188.6,0 81.9,181.3 159,181.3 228.3,64 	"/>
	<path class="st4" d="M238.9,261.7c10.3,17.8,16.2,38.4,16.2,60.5c0,66.8-54.1,120.9-120.9,120.9v0V322.1L238.9,261.7L238.9,261.7z"
		/>
</g>
</svg>
